HIERARCHY
ROOT root
{
	OFFSET 0.000000 0.000000 0.000000
	CHANNELS 6 Xposition Yposition Zposition Zrotation Yrotation Xrotation
	JOINT lhip
	{
		OFFSET 0.058581 -0.082280 -0.017664
		CHANNELS 3 Zrotation Yrotation Xrotation
		JOINT lknee
		{
			OFFSET 0.043451 -0.386469 0.008037
			CHANNELS 3 Zrotation Yrotation Xrotation
			JOINT lankle
			{
				OFFSET -0.014790 -0.426874 -0.037428
				CHANNELS 3 Zrotation Yrotation Xrotation
				JOINT ltoe
				{
					OFFSET 0.041054 -0.060286 0.122042
					CHANNELS 3 Zrotation Yrotation Xrotation
					End Site
					{
						OFFSET 0.000000 0.000000 0.000000
					}
				}
			}
		}
	}
	JOINT rhip
	{
		OFFSET -0.060310 -0.090513 -0.013543
		CHANNELS 3 Zrotation Yrotation Xrotation
		JOINT rknee
		{
			OFFSET -0.043257 -0.383688 -0.004843
			CHANNELS 3 Zrotation Yrotation Xrotation
			JOINT rankle
			{
				OFFSET 0.019056 -0.420046 -0.034562
				CHANNELS 3 Zrotation Yrotation Xrotation
				JOINT rtoe
				{
					OFFSET -0.034840 -0.062106 0.130323
					CHANNELS 3 Zrotation Yrotation Xrotation
					End Site
					{
						OFFSET 0.000000 0.000000 0.000000
					}
				}
			}
		}
	}
	JOINT lowerback
	{
		OFFSET 0.004439 0.124404 -0.038385
		CHANNELS 3 Zrotation Yrotation Xrotation
		JOINT upperback
		{
			OFFSET 0.004488 0.137956 0.026820
			CHANNELS 3 Zrotation Yrotation Xrotation
			JOINT chest
			{
				OFFSET -0.002265 0.056032 0.002855
				CHANNELS 3 Zrotation Yrotation Xrotation
				JOINT lowerneck
				{
					OFFSET -0.013390 0.211636 -0.033468
					CHANNELS 3 Zrotation Yrotation Xrotation
					JOINT upperneck
					{
						OFFSET 0.010113 0.088937 0.050410
						CHANNELS 3 Zrotation Yrotation Xrotation
						End Site
						{
							OFFSET 0.000000 0.000000 0.000000
						}
					}
				}
				JOINT lclavicle
				{
					OFFSET 0.071702 0.114000 -0.018898
					CHANNELS 3 Zrotation Yrotation Xrotation
					JOINT lshoulder
					{
						OFFSET 0.122921 0.045205 -0.019046
						CHANNELS 3 Zrotation Yrotation Xrotation
						JOINT lelbow
						{
							OFFSET 0.255332 -0.015649 -0.022946
							CHANNELS 3 Zrotation Yrotation Xrotation
							JOINT lwrist
							{
								OFFSET 0.265709 0.012698 -0.007375
								CHANNELS 3 Zrotation Yrotation Xrotation
								End Site
								{
									OFFSET 0.000000 0.000000 0.000000
								}
							}
						}
					}
				}
				JOINT rclavicle
				{
					OFFSET -0.082954 0.112472 -0.023707
					CHANNELS 3 Zrotation Yrotation Xrotation
					JOINT rshoulder
					{
						OFFSET -0.113228 0.046853 -0.008472
						CHANNELS 3 Zrotation Yrotation Xrotation
						JOINT relbow
						{
							OFFSET -0.260127 -0.014369 -0.031269
							CHANNELS 3 Zrotation Yrotation Xrotation
							JOINT rwrist
							{
								OFFSET -0.269108 0.006794 -0.006027
								CHANNELS 3 Zrotation Yrotation Xrotation
								End Site
								{
									OFFSET 0.000000 0.000000 0.000000
								}
							}
						}
					}
				}
			}
		}
	}
}
MOTION
Frames: 14
Frame Time: 0.033333
-0.139247 0.169769 0.956202 125.095854 -21.341651 122.650889 10.275903 5.871765 -13.176104 -8.869799 -22.387955 31.402105 -16.539205 1.014639 11.284827 0.000000 -0.000000 0.000000 -16.490808 -12.299283 -62.729261 -0.814329 -12.125432 33.602279 -0.470782 -13.987820 -11.095466 0.000000 -0.000000 0.000000 19.337976 -18.223224 67.784124 -4.821438 12.753205 -4.567142 7.205853 1.025931 5.605366 -3.078447 -29.887657 -3.963304 8.866922 3.298573 -22.480954 -13.449758 -24.267807 -7.284183 -54.965745 -5.168555 32.101768 -30.609658 -50.732772 73.313888 47.688386 -17.874608 -1.684037 -23.101856 38.214593 -13.893993 -15.574516 5.911499 -28.487133 9.826379 4.095077 -13.616682 -14.221412 13.589291 12.116020 
-0.139069 0.171581 0.960784 125.243707 -21.450236 121.529125 10.344409 6.689749 -11.645213 -8.864066 -22.939631 30.183664 -16.396810 0.917801 11.240958 0.000000 -0.000000 0.000000 -15.736948 -12.707371 -61.214622 -0.907799 -10.885519 32.513003 -0.739672 -13.852928 -10.665049 0.000000 -0.000000 0.000000 19.350007 -18.394607 67.106535 -4.841670 12.443161 -4.090012 7.050470 1.257805 5.423412 -3.062546 -30.007754 -4.590897 9.301910 3.060299 -21.424325 -13.082610 -24.275034 -7.563825 -55.505849 -4.802424 32.098283 -30.153641 -50.720643 73.268371 46.495788 -17.003571 -2.215524 -22.656647 38.706539 -13.417535 -12.725721 5.391580 -27.703601 10.233038 2.984322 -15.842357 -8.513991 9.752127 8.532408 
-0.139305 0.173667 0.965477 125.523315 -21.432185 120.246547 10.384437 7.249165 -10.603124 -8.568824 -22.900659 29.079757 -16.208156 0.559926 11.293988 0.000000 -0.000000 0.000000 -15.345195 -12.947812 -59.292538 -1.061929 -10.402252 31.350921 -1.078066 -13.293034 -10.530960 0.000000 -0.000000 0.000000 19.430886 -18.404066 66.523078 -4.884930 11.994981 -3.907226 6.923561 1.572606 5.043628 -3.086779 -29.762680 -4.779547 9.777583 2.670725 -20.695330 -12.632160 -24.210364 -7.621711 -56.292611 -4.521741 31.665110 -30.114648 -50.460864 73.751595 45.170889 -16.160305 -2.838170 -22.171089 38.813265 -13.095623 -8.010643 5.052415 -26.361338 9.625606 2.821889 -17.432366 -6.871598 7.905751 4.642652 
-0.139858 0.175456 0.969955 125.938395 -21.199459 118.674086 10.321419 7.590353 -9.951839 -8.358153 -23.039115 28.338904 -15.935725 0.312517 11.209604 0.000000 -0.000000 0.000000 -14.747052 -13.209875 -57.121348 -1.330060 -10.042252 30.105020 -1.303936 -12.661583 -10.098575 0.000000 -0.000000 0.000000 19.648254 -18.271630 65.738366 -4.689927 11.318024 -3.729880 6.798931 1.726897 5.069555 -3.068582 -28.964894 -5.384211 10.180075 1.901189 -19.896808 -12.339324 -24.282159 -7.202859 -56.945509 -4.540715 31.183223 -29.550430 -50.541645 73.746324 44.111985 -15.037572 -4.005513 -20.564026 38.882275 -11.968269 -3.887527 5.053436 -25.280489 8.369470 2.853716 -17.516371 -5.651777 6.930546 2.155951 
-0.141036 0.177100 0.974370 126.274291 -20.799103 117.090690 10.030755 7.743583 -9.775633 -7.953856 -22.669215 27.724785 -15.564055 0.187986 10.996365 0.000000 -0.000000 0.000000 -14.131350 -13.465657 -54.840602 -1.227272 -9.659923 28.631501 -1.407354 -12.249166 -9.651865 0.000000 -0.000000 0.000000 19.777558 -17.737674 65.249829 -4.437575 10.571495 -4.165823 6.846688 1.812913 5.084078 -3.053470 -28.043972 -6.040674 10.403184 1.189618 -18.913161 -12.421635 -23.989847 -6.830538 -57.442386 -4.670784 30.813113 -29.727972 -50.668143 73.594152 43.365528 -13.926150 -4.754617 -18.084555 38.478484 -10.571158 -0.263182 5.470711 -23.871351 7.613906 3.164694 -16.542951 -5.400248 5.843616 2.507044 
-0.142688 0.178948 0.978757 126.473410 -20.275268 115.226826 9.601513 7.780629 -9.532222 -7.714403 -22.093298 26.977070 -14.931966 0.402607 10.635396 0.000000 -0.000000 0.000000 -13.460361 -13.689412 -52.312726 -1.222504 -9.325810 27.117955 -1.558451 -11.533597 -9.380259 0.000000 -0.000000 0.000000 19.832057 -17.117859 64.493693 -4.128510 9.816914 -4.156162 6.889840 1.914323 5.265716 -2.845941 -27.256111 -6.665992 10.443222 0.607764 -18.389169 -12.821534 -23.990456 -6.192694 -57.458249 -4.991483 30.378959 -29.846656 -50.933529 73.503540 42.102735 -12.903330 -5.115961 -15.563322 37.922040 -9.408625 3.241678 5.705242 -22.249606 7.223138 3.337226 -15.399400 -5.589182 4.944867 2.407144 
-0.144531 0.180005 0.982567 126.579054 -19.498612 113.467538 9.047671 7.880982 -9.753453 -7.306738 -21.433613 26.297300 -14.470347 0.080800 9.211151 0.000000 -0.000000 0.000000 -12.662685 -13.647235 -49.963110 -1.317605 -9.378360 25.755988 -1.591844 -10.872121 -9.130587 0.000000 -0.000000 0.000000 19.864501 -16.361196 63.880571 -3.988531 9.052031 -4.379151 6.905821 1.860898 5.152461 -2.318341 -26.654924 -7.644684 10.210555 -0.157650 -17.818337 -13.121265 -23.758215 -5.625383 -57.557873 -4.627684 29.737493 -29.608696 -51.809104 71.794282 39.938894 -13.066135 -4.549791 -13.358666 37.434490 -8.013035 7.394328 5.811763 -20.236663 6.609583 3.618344 -15.443616 -4.176707 4.072204 2.390783 
-0.146887 0.181843 0.986064 126.408740 -18.563939 111.461494 8.441249 7.860753 -9.720882 -7.062526 -20.654483 25.501568 -13.642174 0.029501 6.569564 0.000000 -0.000000 0.000000 -11.776003 -13.499534 -47.380664 -1.483640 -9.410163 24.518923 -1.273806 -10.246711 -8.933670 0.000000 -0.000000 0.000000 19.545611 -15.378886 63.791788 -3.936710 8.283341 -4.818915 6.905713 1.971560 5.163225 -2.332340 -25.175487 -7.683618 10.794894 -0.452475 -17.424221 -12.841783 -23.342041 -5.620175 -57.917178 -4.232426 29.133678 -29.957627 -52.553427 71.744484 37.658452 -12.025446 -5.344242 -12.061652 36.445317 -8.082940 13.186189 5.852131 -18.329009 5.028374 3.512629 -15.097939 -1.300064 2.724011 1.478045 
-0.148844 0.182837 0.989119 125.998918 -17.563427 109.406282 7.787757 8.237065 -9.603419 -6.876201 -19.634362 24.087735 -12.965291 -0.529855 4.078140 0.000000 -0.000000 0.000000 -10.909316 -13.153515 -44.689705 -1.535512 -9.242904 23.263209 -1.029967 -9.713915 -8.740826 0.000000 -0.000000 0.000000 18.776708 -14.292761 63.833357 -3.794736 7.661256 -5.324439 6.915881 1.942180 5.381977 -1.903603 -23.961870 -9.086381 10.959767 -0.779126 -16.782471 -12.257820 -22.475812 -6.161348 -58.406908 -4.026272 28.669810 -30.379921 -53.224877 71.628820 35.850765 -10.808459 -6.155226 -11.219042 35.222255 -8.605671 19.346029 6.172100 -16.435265 3.391768 2.292079 -17.342344 0.205022 1.486653 -1.192005 
-0.151572 0.186131 0.990643 125.978675 -16.494754 107.417614 7.336819 8.894571 -9.777027 -6.611354 -17.778202 22.249349 -12.439323 -1.781735 2.011045 0.000000 -0.000000 0.000000 -10.179345 -13.341493 -42.248952 -1.537908 -9.586910 22.605654 -0.533077 -8.809889 -8.843089 0.000000 -0.000000 0.000000 18.343686 -13.131653 62.333500 -3.029977 6.953508 -4.426270 6.832246 2.011646 4.918233 -1.835040 -22.930980 -9.235724 11.156683 -0.949762 -17.006919 -12.167016 -21.596134 -6.496777 -59.095408 -4.020118 28.216933 -30.234415 -52.815841 71.182936 32.839762 -10.135153 -6.311071 -9.295972 33.808391 -7.853934 25.113033 5.595234 -14.988265 1.855178 1.705787 -21.002962 1.621169 0.556926 -5.861838 
-0.155736 0.188074 0.992939 126.043570 -15.833840 106.513015 6.388576 8.712381 -11.266839 -6.916491 -15.756217 20.545402 -10.990558 -2.498954 -1.544923 0.000000 -0.000000 0.000000 -10.215024 -12.747611 -40.479339 -1.081511 -9.498745 21.558405 0.217128 -9.691829 -8.339170 0.000000 -0.000000 0.000000 16.152197 -11.105819 59.046082 -0.915226 6.843309 -2.406657 7.075521 2.660594 4.413727 -1.717440 -21.792701 -10.009336 11.265195 -1.291419 -17.346199 -13.138165 -20.349248 -6.158438 -58.942913 -5.215495 28.485090 -30.164060 -52.383775 69.141539 31.338152 -9.342208 -6.423988 -4.628062 31.730751 -5.492833 27.292886 4.555562 -12.822845 2.152570 2.580031 -23.398669 2.394250 0.186883 -9.728271 
-0.160345 0.190941 0.996101 126.597252 -15.289871 105.625717 5.085251 8.080439 -13.047608 -6.889882 -14.279999 18.787501 -9.802252 -2.644362 -4.517440 0.000000 -0.000000 0.000000 -10.247165 -12.189632 -38.890846 -1.046069 -9.415979 20.865341 0.974343 -10.692832 -8.237543 0.000000 -0.000000 0.000000 14.854303 -9.861460 56.508698 0.217564 6.259941 -2.488796 7.093766 2.876283 4.370216 -1.249706 -20.191850 -12.368150 10.601437 -2.323746 -16.190553 -13.931746 -18.405178 -6.440559 -58.780408 -5.860884 28.891913 -30.648823 -51.352108 68.521747 29.366486 -9.008233 -6.473518 -0.231829 28.697555 -3.627666 29.946917 3.327424 -9.628495 2.336740 4.834539 -21.868624 5.502001 0.313760 -11.744808 
-0.164767 0.195844 0.997350 126.903198 -14.575464 104.692919 3.860850 7.178669 -14.628214 -6.770976 -13.425407 17.557127 -8.754079 -3.005205 -7.006865 0.000000 -0.000000 0.000000 -10.242018 -11.731705 -37.428926 -1.108725 -9.854928 20.432370 1.364907 -10.670908 -8.168989 0.000000 -0.000000 0.000000 14.398600 -8.669336 53.683184 0.789915 5.290998 -2.604520 6.616580 3.274569 3.433026 -1.305219 -19.030432 -12.335238 10.815902 -3.602248 -15.851358 -14.411411 -17.573384 -5.498285 -58.993529 -6.072236 28.781081 -29.557998 -50.044988 66.426813 27.421412 -9.453760 -5.903774 3.646603 25.970608 -1.898131 33.405258 0.489348 -6.806199 1.965022 7.363593 -18.652770 8.628753 0.211223 -12.343580 
-0.168057 0.201863 0.997837 126.716380 -13.621793 103.726433 2.974161 5.530242 -15.812441 -6.612792 -12.882508 17.154584 -8.009688 -2.563977 -9.187210 0.000000 -0.000000 0.000000 -10.070454 -11.061067 -35.776291 -0.973386 -10.092531 19.758287 1.707964 -10.642632 -8.025787 0.000000 -0.000000 0.000000 13.865762 -7.480409 51.120805 1.198582 4.440937 -2.543693 6.185829 3.243343 2.406949 -1.675626 -17.412752 -12.743068 10.700998 -4.539689 -15.930620 -14.832224 -15.844157 -5.251905 -59.302608 -6.039074 28.652564 -29.312593 -48.670617 65.354678 25.199279 -10.228669 -6.098876 5.985386 22.959458 -0.663017 36.874066 -1.450095 -4.234539 1.783473 9.060619 -14.321203 11.491636 0.127622 -12.788788 
